# xmcd CD database file
#
# Track frame offsets:
#	187
#	26942
#	47109
#	69889
#	91154
#	107342
#	132339
#	162274
#	183422
#	200912
#	219507
#	237552
#	255139
#	281899
#	300357
#
# Disc length: 4144 seconds
#
# Revision: 0
# Processed by: cddbd v1.5.1PL0 Copyright (c) Steve Scherf et al.
# Submitted via: CDex 1.50
#
DISCID=d1102e0f
DTITLE=Christian McBride(b)Nicholas Payton(tp)Mark Whitfield(g) - Fingerpainting's-The Music Of Herbie Hancock
DYEAR=1900
DGENRE=Jazz
TTITLE0=Fingerpainting
TTITLE1=Driftin'
TTITLE2=Chameleon
TTITLE3=Tell Me A Bedtime Story
TTITLE4=The Eye Of The Hurricane
TTITLE5=The Kiss
TTITLE6=Speak Like A Child
TTITLE7=The Sorcerer
TTITLE8=Dolphin Dance
TTITLE9=Chan's Song
TTITLE10=One Finger Snap
TTITLE11=Sly
TTITLE12=Oliloqui Valley
TTITLE13=Jane's Theme
TTITLE14=A Tribute To Someone
EXTD=
EXTT0=
EXTT1=
EXTT2=
EXTT3=
EXTT4=
EXTT5=
EXTT6=
EXTT7=
EXTT8=
EXTT9=
EXTT10=
EXTT11=
EXTT12=
EXTT13=
EXTT14=
PLAYORDER=
